<svg width="110" height="47" viewBox="0 0 110 47" fill="none" xmlns="http://www.w3.org/2000/svg">
<g clip-path="url(#clip0)">
<path d="M25.9399 25.6553C25.9399 20.9176 29.5399 18.0201 33.6899 18.0201C35.6599 18.0201 37.5499 18.559 38.7499 19.4841V22.8493C37.5999 21.853 36.0599 21.1413 34.3299 21.1413C31.9099 21.1413 30.0599 22.7273 30.0599 25.6553C30.0599 28.563 31.9099 30.1693 34.3299 30.1693C36.0599 30.1693 37.5899 29.4576 38.7499 28.4613V31.8265C37.5499 32.7516 35.6499 33.2905 33.6899 33.2905C29.5399 33.2905 25.9399 30.393 25.9399 25.6553Z" fill="#636363"/>
<path d="M40.0699 31.369L40.9299 28.4918C42.0099 29.417 43.5699 30.4438 45.4699 30.4438C46.65 30.4438 47.56 29.9762 47.56 28.9595C47.56 28.0038 46.94 27.6683 44.87 27.1295C41.5799 26.3467 40.4499 24.5675 40.4499 22.3918C40.4499 19.7282 42.5099 17.9998 45.7299 17.9998C47.6299 17.9998 49.33 18.681 50.46 19.4841L49.67 22.1173C48.59 21.4362 47.08 20.8465 45.69 20.8465C44.66 20.8465 44.01 21.2837 44.01 22.0157C44.01 22.6968 44.4399 23.0933 46.0699 23.5C49.6699 24.354 51.13 25.8892 51.13 28.5223C51.13 31.9587 48.39 33.26 45.4699 33.26C42.9999 33.2702 41.1999 32.3145 40.0699 31.369Z" fill="#636363"/>
<path d="M57.4499 18.3353H60.7399L66.7899 32.9753H62.9299L61.7099 29.8542H56.3699L55.1699 32.9753H51.3999L57.4499 18.3353ZM60.7599 27.2922L59.0299 22.6765L57.2999 27.2922H60.7599Z" fill="#636363"/>
<path d="M67.4099 32.0705L67.9399 29.6305C68.8999 30.2201 70.0999 30.8708 71.7099 30.8708C72.6199 30.8708 73.1499 30.6471 73.1499 30.0676C73.1499 29.4576 72.4999 29.4068 71.3699 29.1628C68.4899 28.624 67.6999 27.0685 67.6999 25.4825C67.6999 23.7948 68.9999 22.1173 72.0199 22.1173C73.7199 22.1173 75.1899 22.7781 75.8599 23.1136L75.3099 25.4316C74.2499 24.8216 73.1999 24.5268 72.1899 24.5268C71.3499 24.5268 70.9399 24.7505 70.9399 25.1876C70.9399 25.696 71.5199 25.818 72.3299 25.9908C75.4299 26.5805 76.3899 28.0851 76.3899 29.5288C76.3899 31.8265 74.8099 33.3108 71.8299 33.3108C69.7899 33.321 68.2299 32.5585 67.4099 32.0705Z" fill="#636363"/>
<path d="M83.1499 18.3353H88.7699C94.6999 18.3353 97.1199 21.6293 97.1199 25.6553C97.1199 29.6813 94.6999 32.9753 88.7699 32.9753H83.1499V18.3353ZM88.4599 29.9253C91.6999 29.9253 93.1599 28.5833 93.1599 25.6553C93.1599 22.7273 91.6999 21.3853 88.4599 21.3853H87.0399V29.9253H88.4599Z" fill="#636363"/>
<path d="M99.2999 18.3353H109V21.3142H103.19V23.9473H107.8V26.8957H103.19V32.9753H99.2999V18.3353Z" fill="#636363"/>
<path d="M7.77002 40.1327C8.77002 39.0753 9.97002 38.1908 11.03 37.1843C12.99 35.3238 14.53 32.9957 15.47 30.4337C11.23 31.4707 7.92002 35.7 7.77002 40.1327Z" fill="#B8C057"/>
<path d="M5.99993 38.4958C8.14993 28.5427 11.0399 19.9518 15.1199 10.6392C16.4699 7.56884 17.9399 4.40701 17.9399 1.04184C14.0399 5.71851 7.26993 7.30451 3.76993 12.3065C2.24993 14.4822 1.48993 17.1255 1.16993 19.7688C0.36993 26.1942 2.24993 33.26 5.99993 38.4958Z" fill="#B8C057"/>
<path d="M6.80997 46.314C3.44997 44.1892 5.26997 38.8212 5.99997 35.7508C6.99997 31.552 8.17997 27.3938 9.53997 23.3068C10.92 19.1283 12.48 15.0007 14.22 10.9543C15.69 7.52816 17.36 4.15282 17.47 0.330157C17.48 0.147157 17.22 0.0251574 17.1 0.177657C12.23 5.79982 3.89997 7.20282 1.20997 14.8278C-1.45003 22.3715 0.489973 31.4605 4.96997 37.8655C5.12997 38.0993 5.50997 37.8757 5.33997 37.6418C0.819973 31.1657 -1.21003 21.7005 1.92997 14.1772C4.81997 7.27399 12.81 5.79982 17.4 0.492824C17.28 0.441991 17.15 0.391157 17.03 0.340324C16.9 5.04749 14.4 9.28699 12.67 13.5468C10.88 17.949 9.29997 22.4325 7.91997 26.9872C6.63997 31.2267 5.31997 35.5983 4.63997 39.9903C4.26997 42.41 4.31997 45.2668 6.58997 46.7003C6.82997 46.8427 7.04997 46.4563 6.80997 46.314Z" fill="#575756"/>
<path d="M5.35998 37.5198C2.63998 30.4438 4.04998 22.7883 7.17998 16.119C8.55998 13.1808 10.18 10.3647 12.2 7.83316C14.09 5.45416 16.03 3.17682 17.43 0.452157C17.56 0.197991 17.18 -0.0256761 17.06 0.228491C15.51 3.25816 13.26 5.71849 11.22 8.39232C9.09998 11.1678 7.40998 14.3703 6.05998 17.5932C3.38998 23.927 2.41998 31.0843 4.93998 37.6317C5.03998 37.896 5.45998 37.7842 5.35998 37.5198Z" fill="#575756"/>
<path d="M6.05998 45.6938C3.89998 41.7085 8.19998 38.933 10.63 36.6048C12.64 34.6833 14.12 32.3552 15.13 29.7627C15.19 29.6 15.01 29.4475 14.86 29.4882C10.44 30.698 7.26998 34.663 6.99998 39.299C6.97998 39.5837 7.41998 39.5837 7.42998 39.299C7.59998 36.371 8.96999 33.6667 11.22 31.8163C11.83 31.3182 12.5 30.881 13.21 30.5455C13.49 30.4235 13.77 30.3117 14.05 30.1897C14.62 29.8643 14.7 30.027 14.29 30.6675C14.06 32.0298 12.55 33.809 11.71 34.8053C9.16998 37.8553 3.02998 41.0273 5.67998 45.9175C5.81998 46.1717 6.19998 45.948 6.05998 45.6938Z" fill="#575756"/>
<path d="M7.87995 38.9432C9.87995 35.7102 11.7799 32.5992 14.8199 30.2608C15.0399 30.088 14.8199 29.7118 14.5999 29.8847C11.4799 32.284 9.54995 35.4052 7.49995 38.7297C7.35995 38.9635 7.73995 39.1872 7.87995 38.9432Z" fill="#575756"/>
<path d="M9.44996 36.1372C9.11996 35.4052 9.21996 34.6223 9.35996 33.8598C9.41996 33.5853 8.99996 33.4633 8.94996 33.748C8.77996 34.6427 8.68996 35.517 9.07996 36.371C9.19996 36.6252 9.56996 36.4015 9.44996 36.1372Z" fill="#575756"/>
<path d="M11.35 33.5345C11.14 32.9347 11.08 32.2535 11.43 31.6943C11.58 31.4503 11.2 31.2267 11.06 31.4707C10.65 32.1315 10.69 32.9448 10.94 33.6565C11.03 33.9208 11.45 33.7988 11.35 33.5345Z" fill="#575756"/>
<path d="M9.89996 35.5475C10.63 35.9135 11.32 35.4865 11.95 35.1205C12.19 34.9782 11.97 34.602 11.73 34.7443C11.26 35.0188 10.67 35.456 10.11 35.1713C9.86996 35.0392 9.64996 35.4255 9.89996 35.5475Z" fill="#575756"/>
<path d="M11.5799 33.4226C11.8999 33.504 12.1899 33.443 12.4799 33.2905C12.7399 33.1583 13.0599 32.833 13.3699 32.9042C13.6399 32.9652 13.7599 32.5382 13.4899 32.4772C12.7999 32.3247 12.3599 33.1685 11.6999 32.9957C11.4299 32.9347 11.3099 33.3616 11.5799 33.4226Z" fill="#575756"/>
<path d="M3.89994 28.2173C3.55994 27.1295 2.57994 26.2755 2.06994 25.2283C1.37994 23.8253 0.969936 22.3003 0.489936 20.816C0.399936 20.5517 -0.0200642 20.6635 0.0699358 20.938C0.459936 22.1682 0.819936 23.4187 1.31994 24.6183C1.54994 25.1877 1.81994 25.7367 2.12994 26.2653C2.50994 26.9058 3.24994 27.6175 3.47994 28.3292C3.56994 28.6037 3.98994 28.4918 3.89994 28.2173Z" fill="#575756"/>
<path d="M5.64999 19.5553C4.15999 17.0848 2.97999 14.8482 3.19999 11.8592C3.21999 11.5745 2.78999 11.5745 2.76999 11.8592C2.54999 14.9397 3.74999 17.2272 5.27999 19.779C5.41999 20.023 5.78999 19.7993 5.64999 19.5553Z" fill="#575756"/>
<path d="M9.06994 12.3675C8.60994 10.5375 8.52994 8.738 8.84994 6.8775C8.89994 6.603 8.47994 6.481 8.43994 6.7555C8.10994 8.69733 8.17994 10.5782 8.65994 12.4793C8.71994 12.764 9.13994 12.642 9.06994 12.3675Z" fill="#575756"/>
<path d="M6.72994 17.1865C7.84994 17.034 8.98994 17.2678 10.0899 16.9425C10.9199 16.6883 11.6699 16.2512 12.2399 15.5903C12.4199 15.3768 12.1199 15.0617 11.9299 15.2752C10.4599 16.9933 8.56994 16.4951 6.61994 16.7696C6.33994 16.8001 6.44994 17.217 6.72994 17.1865Z" fill="#575756"/>
<path d="M4.08 24.8521C4.45 25.5638 5.72 24.6895 6.21 24.4556C7.76 23.7338 8.84 22.5646 10.04 21.3751C10.24 21.1718 9.93 20.8668 9.73 21.06C8.92 21.8733 8.13 22.7883 7.17 23.4288C6.86 23.6321 4.59 24.903 4.45 24.6285C4.32 24.3743 3.95 24.598 4.08 24.8521Z" fill="#575756"/>
<path d="M4.01998 33.26C5.26998 32.9753 6.46998 32.3551 7.10998 31.186C7.24998 30.942 6.86998 30.7183 6.73998 30.9623C6.14998 32.0298 5.04998 32.5788 3.90998 32.833C3.62998 32.9041 3.73998 33.321 4.01998 33.26Z" fill="#575756"/>
</g>
<defs>
<clipPath id="clip0">
<rect y="0.116669" width="109.03" height="46.6142" fill="white"/>
</clipPath>
</defs>
</svg>
